<?xml version="1.0" encoding="UTF-8" standalone="no"?>
<!DOCTYPE svg PUBLIC "-//W3C//DTD SVG 1.1//EN"
 "http://www.w3.org/Graphics/SVG/1.1/DTD/svg11.dtd">
<!-- Generated by graphviz version 2.38.0 (20140413.2041)
 -->
<!-- Title: %3 Pages: 1 -->
<svg width="1073pt" height="591pt"
 viewBox="0.00 0.00 1073.22 591.00" xmlns="http://www.w3.org/2000/svg" xmlns:xlink="http://www.w3.org/1999/xlink">
<g id="graph0" class="graph" transform="scale(1 1) rotate(0) translate(4 587)">
<title>%3</title>
<polygon fill="white" stroke="none" points="-4,4 -4,-587 1069.22,-587 1069.22,4 -4,4"/>
<!-- riding -->
<g id="node1" class="node"><title>riding</title>
<ellipse fill="none" stroke="black" cx="31.8472" cy="-241" rx="31.6951" ry="18"/>
<text text-anchor="middle" x="31.8472" y="-237.3" font-family="Times,serif" font-size="14.00">riding</text>
</g>
<!-- clutch control -->
<g id="node2" class="node"><title>clutch control</title>
<ellipse fill="none" stroke="black" cx="185.487" cy="-430" rx="59.5901" ry="18"/>
<text text-anchor="middle" x="185.487" y="-426.3" font-family="Times,serif" font-size="14.00">clutch control</text>
</g>
<!-- riding&#45;&gt;clutch control -->
<g id="edge1" class="edge"><title>riding&#45;&gt;clutch control</title>
<path fill="none" stroke="black" d="M38.253,-258.985C47.2972,-286.707 67.7152,-340.391 99.6943,-376 111.766,-389.441 127.939,-400.842 142.923,-409.654"/>
<polygon fill="black" stroke="black" points="141.622,-412.939 152.051,-414.802 145.06,-406.841 141.622,-412.939"/>
</g>
<!-- front brake control -->
<g id="node3" class="node"><title>front brake control</title>
<ellipse fill="none" stroke="black" cx="185.487" cy="-291" rx="77.1866" ry="18"/>
<text text-anchor="middle" x="185.487" y="-287.3" font-family="Times,serif" font-size="14.00">front brake control</text>
</g>
<!-- riding&#45;&gt;front brake control -->
<g id="edge2" class="edge"><title>riding&#45;&gt;front brake control</title>
<path fill="none" stroke="black" d="M59.6082,-249.824C79.1872,-256.28 106.415,-265.257 130.451,-273.183"/>
<polygon fill="black" stroke="black" points="129.583,-276.582 140.176,-276.389 131.775,-269.934 129.583,-276.582"/>
</g>
<!-- rear brake control -->
<g id="node4" class="node"><title>rear brake control</title>
<ellipse fill="none" stroke="black" cx="185.487" cy="-195" rx="73.387" ry="18"/>
<text text-anchor="middle" x="185.487" y="-191.3" font-family="Times,serif" font-size="14.00">rear brake control</text>
</g>
<!-- riding&#45;&gt;rear brake control -->
<g id="edge3" class="edge"><title>riding&#45;&gt;rear brake control</title>
<path fill="none" stroke="black" d="M60.308,-232.67C79.3513,-226.893 105.38,-218.997 128.689,-211.926"/>
<polygon fill="black" stroke="black" points="129.931,-215.207 138.484,-208.955 127.899,-208.509 129.931,-215.207"/>
</g>
<!-- throttle control -->
<g id="node5" class="node"><title>throttle control</title>
<ellipse fill="none" stroke="black" cx="185.487" cy="-349" rx="63.8893" ry="18"/>
<text text-anchor="middle" x="185.487" y="-345.3" font-family="Times,serif" font-size="14.00">throttle control</text>
</g>
<!-- riding&#45;&gt;throttle control -->
<g id="edge4" class="edge"><title>riding&#45;&gt;throttle control</title>
<path fill="none" stroke="black" d="M43.7138,-257.941C55.581,-275.218 76.0765,-301.732 99.6943,-318 108.4,-323.997 118.404,-328.985 128.418,-333.081"/>
<polygon fill="black" stroke="black" points="127.39,-336.435 137.98,-336.738 129.89,-329.897 127.39,-336.435"/>
</g>
<!-- countersteering -->
<g id="node6" class="node"><title>countersteering</title>
<ellipse fill="none" stroke="black" cx="394.371" cy="-241" rx="64.9885" ry="18"/>
<text text-anchor="middle" x="394.371" y="-237.3" font-family="Times,serif" font-size="14.00">countersteering</text>
</g>
<!-- riding&#45;&gt;countersteering -->
<g id="edge5" class="edge"><title>riding&#45;&gt;countersteering</title>
<path fill="none" stroke="black" d="M63.8973,-241C120.128,-241 240.269,-241 318.881,-241"/>
<polygon fill="black" stroke="black" points="319.209,-244.5 329.209,-241 319.209,-237.5 319.209,-244.5"/>
</g>
<!-- looking ahead -->
<g id="node7" class="node"><title>looking ahead</title>
<ellipse fill="none" stroke="black" cx="185.487" cy="-18" rx="60.3893" ry="18"/>
<text text-anchor="middle" x="185.487" y="-14.3" font-family="Times,serif" font-size="14.00">looking ahead</text>
</g>
<!-- riding&#45;&gt;looking ahead -->
<g id="edge6" class="edge"><title>riding&#45;&gt;looking ahead</title>
<path fill="none" stroke="black" d="M35.7457,-223.074C42.0084,-189.272 59.6046,-115.273 99.6943,-68 110.394,-55.3837 125.125,-45.1597 139.309,-37.3226"/>
<polygon fill="black" stroke="black" points="141.262,-40.2508 148.503,-32.5161 138.019,-34.0474 141.262,-40.2508"/>
</g>
<!-- neutral body position -->
<g id="node8" class="node"><title>neutral body position</title>
<ellipse fill="none" stroke="black" cx="185.487" cy="-95" rx="85.5853" ry="18"/>
<text text-anchor="middle" x="185.487" y="-91.3" font-family="Times,serif" font-size="14.00">neutral body position</text>
</g>
<!-- riding&#45;&gt;neutral body position -->
<g id="edge7" class="edge"><title>riding&#45;&gt;neutral body position</title>
<path fill="none" stroke="black" d="M46.6694,-224.829C59.8371,-209.689 80.4503,-186.663 99.6943,-168 117.31,-150.916 138.188,-132.916 154.819,-119.065"/>
<polygon fill="black" stroke="black" points="157.135,-121.692 162.609,-112.621 152.673,-116.298 157.135,-121.692"/>
</g>
<!-- clutch upshift -->
<g id="node16" class="node"><title>clutch upshift</title>
<ellipse fill="none" stroke="black" cx="394.371" cy="-457" rx="59.2899" ry="18"/>
<text text-anchor="middle" x="394.371" y="-453.3" font-family="Times,serif" font-size="14.00">clutch upshift</text>
</g>
<!-- clutch control&#45;&gt;clutch upshift -->
<g id="edge16" class="edge"><title>clutch control&#45;&gt;clutch upshift</title>
<path fill="none" stroke="black" d="M240.573,-437.059C267.763,-440.607 300.896,-444.931 329.349,-448.645"/>
<polygon fill="black" stroke="black" points="329.232,-452.159 339.601,-449.983 330.138,-445.218 329.232,-452.159"/>
</g>
<!-- clutch downshift -->
<g id="node17" class="node"><title>clutch downshift</title>
<ellipse fill="none" stroke="black" cx="394.371" cy="-511" rx="69.5877" ry="18"/>
<text text-anchor="middle" x="394.371" y="-507.3" font-family="Times,serif" font-size="14.00">clutch downshift</text>
</g>
<!-- clutch control&#45;&gt;clutch downshift -->
<g id="edge17" class="edge"><title>clutch control&#45;&gt;clutch downshift</title>
<path fill="none" stroke="black" d="M217.855,-445.235C241.993,-456.66 276.346,-472.281 307.279,-484 317.048,-487.701 327.569,-491.306 337.788,-494.614"/>
<polygon fill="black" stroke="black" points="336.868,-497.994 347.459,-497.688 338.989,-491.323 336.868,-497.994"/>
</g>
<!-- clutch wheelie -->
<g id="node18" class="node"><title>clutch wheelie</title>
<ellipse fill="none" stroke="black" cx="394.371" cy="-403" rx="61.99" ry="18"/>
<text text-anchor="middle" x="394.371" y="-399.3" font-family="Times,serif" font-size="14.00">clutch wheelie</text>
</g>
<!-- clutch control&#45;&gt;clutch wheelie -->
<g id="edge18" class="edge"><title>clutch control&#45;&gt;clutch wheelie</title>
<path fill="none" stroke="black" d="M240.573,-422.941C267.23,-419.462 299.599,-415.238 327.67,-411.574"/>
<polygon fill="black" stroke="black" points="328.336,-415.017 337.799,-410.253 327.431,-408.076 328.336,-415.017"/>
</g>
<!-- linked braking -->
<g id="node26" class="node"><title>linked braking</title>
<ellipse fill="none" stroke="black" cx="394.371" cy="-295" rx="61.99" ry="18"/>
<text text-anchor="middle" x="394.371" y="-291.3" font-family="Times,serif" font-size="14.00">linked braking</text>
</g>
<!-- front brake control&#45;&gt;linked braking -->
<g id="edge31" class="edge"><title>front brake control&#45;&gt;linked braking</title>
<path fill="none" stroke="black" d="M262.642,-292.472C282.174,-292.85 303.104,-293.255 322.365,-293.627"/>
<polygon fill="black" stroke="black" points="322.505,-297.13 332.571,-293.824 322.64,-290.132 322.505,-297.13"/>
</g>
<!-- U&#45;turn -->
<g id="node11" class="node"><title>U&#45;turn</title>
<ellipse fill="none" stroke="black" cx="612.355" cy="-41" rx="34.394" ry="18"/>
<text text-anchor="middle" x="612.355" y="-37.3" font-family="Times,serif" font-size="14.00">U&#45;turn</text>
</g>
<!-- rear brake control&#45;&gt;U&#45;turn -->
<g id="edge28" class="edge"><title>rear brake control&#45;&gt;U&#45;turn</title>
<path fill="none" stroke="black" d="M249.858,-203.704C311.888,-209.362 407.567,-210.294 481.464,-176 488.349,-172.804 554.291,-102.453 589.477,-64.6086"/>
<polygon fill="black" stroke="black" points="592.246,-66.7712 596.487,-57.0623 587.117,-62.0073 592.246,-66.7712"/>
</g>
<!-- backing in -->
<g id="node25" class="node"><title>backing in</title>
<ellipse fill="none" stroke="black" cx="394.371" cy="-149" rx="48.1917" ry="18"/>
<text text-anchor="middle" x="394.371" y="-145.3" font-family="Times,serif" font-size="14.00">backing in</text>
</g>
<!-- rear brake control&#45;&gt;backing in -->
<g id="edge29" class="edge"><title>rear brake control&#45;&gt;backing in</title>
<path fill="none" stroke="black" d="M240.573,-182.974C272.089,-175.967 311.589,-167.184 342.532,-160.304"/>
<polygon fill="black" stroke="black" points="343.672,-163.636 352.674,-158.049 342.152,-156.803 343.672,-163.636"/>
</g>
<!-- rear brake control&#45;&gt;linked braking -->
<g id="edge30" class="edge"><title>rear brake control&#45;&gt;linked braking</title>
<path fill="none" stroke="black" d="M210.976,-212.211C234.725,-228.309 272.212,-252.182 307.279,-268 317.118,-272.438 327.898,-276.443 338.399,-279.927"/>
<polygon fill="black" stroke="black" points="337.339,-283.263 347.93,-282.977 339.473,-276.596 337.339,-283.263"/>
</g>
<!-- throttle control&#45;&gt;clutch wheelie -->
<g id="edge19" class="edge"><title>throttle control&#45;&gt;clutch wheelie</title>
<path fill="none" stroke="black" d="M232.916,-361.119C264.01,-369.235 305.098,-379.959 337.912,-388.524"/>
<polygon fill="black" stroke="black" points="337.25,-391.969 347.81,-391.108 339.018,-385.196 337.25,-391.969"/>
</g>
<!-- engine braking -->
<g id="node21" class="node"><title>engine braking</title>
<ellipse fill="none" stroke="black" cx="394.371" cy="-349" rx="63.8893" ry="18"/>
<text text-anchor="middle" x="394.371" y="-345.3" font-family="Times,serif" font-size="14.00">engine braking</text>
</g>
<!-- throttle control&#45;&gt;engine braking -->
<g id="edge23" class="edge"><title>throttle control&#45;&gt;engine braking</title>
<path fill="none" stroke="black" d="M249.402,-349C271.77,-349 297.141,-349 320.287,-349"/>
<polygon fill="black" stroke="black" points="320.399,-352.5 330.399,-349 320.399,-345.5 320.399,-352.5"/>
</g>
<!-- simple&#45;radius turn -->
<g id="node12" class="node"><title>simple&#45;radius turn</title>
<ellipse fill="none" stroke="black" cx="612.355" cy="-168" rx="75.2868" ry="18"/>
<text text-anchor="middle" x="612.355" y="-164.3" font-family="Times,serif" font-size="14.00">simple&#45;radius turn</text>
</g>
<!-- countersteering&#45;&gt;simple&#45;radius turn -->
<g id="edge11" class="edge"><title>countersteering&#45;&gt;simple&#45;radius turn</title>
<path fill="none" stroke="black" d="M436.25,-227.183C470.828,-215.497 520.614,-198.67 558.267,-185.943"/>
<polygon fill="black" stroke="black" points="559.699,-189.154 568.051,-182.636 557.457,-182.522 559.699,-189.154"/>
</g>
<!-- trail braking -->
<g id="node19" class="node"><title>trail braking</title>
<ellipse fill="none" stroke="black" cx="612.355" cy="-349" rx="53.8905" ry="18"/>
<text text-anchor="middle" x="612.355" y="-345.3" font-family="Times,serif" font-size="14.00">trail braking</text>
</g>
<!-- countersteering&#45;&gt;trail braking -->
<g id="edge21" class="edge"><title>countersteering&#45;&gt;trail braking</title>
<path fill="none" stroke="black" d="M448.179,-251.377C459.877,-255.301 471.688,-260.671 481.464,-268 504.542,-285.303 494.18,-304.974 517.464,-322 527.835,-329.584 540.289,-335.044 552.685,-338.972"/>
<polygon fill="black" stroke="black" points="551.997,-342.416 562.574,-341.806 553.925,-335.687 551.997,-342.416"/>
</g>
<!-- swerve -->
<g id="node20" class="node"><title>swerve</title>
<ellipse fill="none" stroke="black" cx="612.355" cy="-241" rx="35.9954" ry="18"/>
<text text-anchor="middle" x="612.355" y="-237.3" font-family="Times,serif" font-size="14.00">swerve</text>
</g>
<!-- countersteering&#45;&gt;swerve -->
<g id="edge22" class="edge"><title>countersteering&#45;&gt;swerve</title>
<path fill="none" stroke="black" d="M459.589,-241C493.998,-241 535.545,-241 566.463,-241"/>
<polygon fill="black" stroke="black" points="566.515,-244.5 576.515,-241 566.515,-237.5 566.515,-244.5"/>
</g>
<!-- looking ahead&#45;&gt;U&#45;turn -->
<g id="edge20" class="edge"><title>looking ahead&#45;&gt;U&#45;turn</title>
<path fill="none" stroke="black" d="M244.038,-13.29C303.619,-9.33347 399.311,-5.55194 481.464,-14 511.972,-17.1373 545.884,-24.3155 571.406,-30.4822"/>
<polygon fill="black" stroke="black" points="570.898,-33.962 581.446,-32.9604 572.576,-27.166 570.898,-33.962"/>
</g>
<!-- inside body position -->
<g id="node9" class="node"><title>inside body position</title>
<ellipse fill="none" stroke="black" cx="394.371" cy="-95" rx="82.5854" ry="18"/>
<text text-anchor="middle" x="394.371" y="-91.3" font-family="Times,serif" font-size="14.00">inside body position</text>
</g>
<!-- neutral body position&#45;&gt;inside body position -->
<g id="edge8" class="edge"><title>neutral body position&#45;&gt;inside body position</title>
<path fill="none" stroke="black" d="M271.53,-95C281.373,-95 291.446,-95 301.377,-95"/>
<polygon fill="black" stroke="black" points="301.658,-98.5001 311.658,-95 301.658,-91.5001 301.658,-98.5001"/>
</g>
<!-- outside body position -->
<g id="node10" class="node"><title>outside body position</title>
<ellipse fill="none" stroke="black" cx="394.371" cy="-41" rx="87.1846" ry="18"/>
<text text-anchor="middle" x="394.371" y="-37.3" font-family="Times,serif" font-size="14.00">outside body position</text>
</g>
<!-- neutral body position&#45;&gt;outside body position -->
<g id="edge9" class="edge"><title>neutral body position&#45;&gt;outside body position</title>
<path fill="none" stroke="black" d="M240.034,-81.0234C267.451,-73.8672 301.017,-65.1059 329.747,-57.6069"/>
<polygon fill="black" stroke="black" points="330.898,-60.9239 339.69,-55.0117 329.13,-54.1508 330.898,-60.9239"/>
</g>
<!-- inside body position&#45;&gt;simple&#45;radius turn -->
<g id="edge14" class="edge"><title>inside body position&#45;&gt;simple&#45;radius turn</title>
<path fill="none" stroke="black" d="M443.286,-109.687C455.745,-113.599 469.131,-117.884 481.464,-122 507.691,-130.753 536.711,-140.979 560.658,-149.563"/>
<polygon fill="black" stroke="black" points="559.651,-152.921 570.246,-153.01 562.019,-146.333 559.651,-152.921"/>
</g>
<!-- outside body position&#45;&gt;U&#45;turn -->
<g id="edge10" class="edge"><title>outside body position&#45;&gt;U&#45;turn</title>
<path fill="none" stroke="black" d="M481.665,-41C511.172,-41 542.934,-41 567.639,-41"/>
<polygon fill="black" stroke="black" points="567.768,-44.5001 577.768,-41 567.768,-37.5001 567.768,-44.5001"/>
</g>
<!-- tight circle -->
<g id="node23" class="node"><title>tight circle</title>
<ellipse fill="none" stroke="black" cx="834.239" cy="-41" rx="48.9926" ry="18"/>
<text text-anchor="middle" x="834.239" y="-37.3" font-family="Times,serif" font-size="14.00">tight circle</text>
</g>
<!-- U&#45;turn&#45;&gt;tight circle -->
<g id="edge26" class="edge"><title>U&#45;turn&#45;&gt;tight circle</title>
<path fill="none" stroke="black" d="M647.23,-41C681.324,-41 734.561,-41 775.36,-41"/>
<polygon fill="black" stroke="black" points="775.446,-44.5001 785.446,-41 775.446,-37.5001 775.446,-44.5001"/>
</g>
<!-- compound&#45;radius turn -->
<g id="node13" class="node"><title>compound&#45;radius turn</title>
<ellipse fill="none" stroke="black" cx="834.239" cy="-222" rx="89.0842" ry="18"/>
<text text-anchor="middle" x="834.239" y="-218.3" font-family="Times,serif" font-size="14.00">compound&#45;radius turn</text>
</g>
<!-- simple&#45;radius turn&#45;&gt;compound&#45;radius turn -->
<g id="edge12" class="edge"><title>simple&#45;radius turn&#45;&gt;compound&#45;radius turn</title>
<path fill="none" stroke="black" d="M665.465,-180.797C695.849,-188.259 734.471,-197.744 766.998,-205.732"/>
<polygon fill="black" stroke="black" points="766.335,-209.173 776.881,-208.159 768.004,-202.375 766.335,-209.173"/>
</g>
<!-- off&#45;camber turn -->
<g id="node14" class="node"><title>off&#45;camber turn</title>
<ellipse fill="none" stroke="black" cx="834.239" cy="-168" rx="66.8882" ry="18"/>
<text text-anchor="middle" x="834.239" y="-164.3" font-family="Times,serif" font-size="14.00">off&#45;camber turn</text>
</g>
<!-- simple&#45;radius turn&#45;&gt;off&#45;camber turn -->
<g id="edge13" class="edge"><title>simple&#45;radius turn&#45;&gt;off&#45;camber turn</title>
<path fill="none" stroke="black" d="M687.798,-168C710.055,-168 734.486,-168 756.864,-168"/>
<polygon fill="black" stroke="black" points="756.987,-171.5 766.987,-168 756.987,-164.5 756.987,-171.5"/>
</g>
<!-- chicane -->
<g id="node15" class="node"><title>chicane</title>
<ellipse fill="none" stroke="black" cx="834.239" cy="-114" rx="37.8943" ry="18"/>
<text text-anchor="middle" x="834.239" y="-110.3" font-family="Times,serif" font-size="14.00">chicane</text>
</g>
<!-- simple&#45;radius turn&#45;&gt;chicane -->
<g id="edge15" class="edge"><title>simple&#45;radius turn&#45;&gt;chicane</title>
<path fill="none" stroke="black" d="M665.465,-155.203C703.493,-145.864 754.426,-133.355 790.162,-124.579"/>
<polygon fill="black" stroke="black" points="791.397,-127.88 800.274,-122.096 789.727,-121.082 791.397,-127.88"/>
</g>
<!-- clutchless upshift -->
<g id="node29" class="node"><title>clutchless upshift</title>
<ellipse fill="none" stroke="black" cx="612.355" cy="-457" rx="72.2875" ry="18"/>
<text text-anchor="middle" x="612.355" y="-453.3" font-family="Times,serif" font-size="14.00">clutchless upshift</text>
</g>
<!-- clutch upshift&#45;&gt;clutchless upshift -->
<g id="edge35" class="edge"><title>clutch upshift&#45;&gt;clutchless upshift</title>
<path fill="none" stroke="black" d="M453.535,-457C476.926,-457 504.31,-457 529.641,-457"/>
<polygon fill="black" stroke="black" points="529.979,-460.5 539.979,-457 529.979,-453.5 529.979,-460.5"/>
</g>
<!-- clutchless downshift -->
<g id="node30" class="node"><title>clutchless downshift</title>
<ellipse fill="none" stroke="black" cx="612.355" cy="-565" rx="83.3857" ry="18"/>
<text text-anchor="middle" x="612.355" y="-561.3" font-family="Times,serif" font-size="14.00">clutchless downshift</text>
</g>
<!-- clutch downshift&#45;&gt;clutchless downshift -->
<g id="edge36" class="edge"><title>clutch downshift&#45;&gt;clutchless downshift</title>
<path fill="none" stroke="black" d="M444.922,-523.389C475.284,-530.98 514.464,-540.775 547.182,-548.955"/>
<polygon fill="black" stroke="black" points="546.561,-552.408 557.112,-551.438 548.259,-545.617 546.561,-552.408"/>
</g>
<!-- rev matching downshift -->
<g id="node31" class="node"><title>rev matching downshift</title>
<ellipse fill="none" stroke="black" cx="612.355" cy="-511" rx="94.7833" ry="18"/>
<text text-anchor="middle" x="612.355" y="-507.3" font-family="Times,serif" font-size="14.00">rev matching downshift</text>
</g>
<!-- clutch downshift&#45;&gt;rev matching downshift -->
<g id="edge37" class="edge"><title>clutch downshift&#45;&gt;rev matching downshift</title>
<path fill="none" stroke="black" d="M464.007,-511C477.756,-511 492.492,-511 507.135,-511"/>
<polygon fill="black" stroke="black" points="507.244,-514.5 517.244,-511 507.244,-507.5 507.244,-514.5"/>
</g>
<!-- power wheelie -->
<g id="node22" class="node"><title>power wheelie</title>
<ellipse fill="none" stroke="black" cx="612.355" cy="-403" rx="62.2891" ry="18"/>
<text text-anchor="middle" x="612.355" y="-399.3" font-family="Times,serif" font-size="14.00">power wheelie</text>
</g>
<!-- clutch wheelie&#45;&gt;power wheelie -->
<g id="edge25" class="edge"><title>clutch wheelie&#45;&gt;power wheelie</title>
<path fill="none" stroke="black" d="M456.398,-403C482.281,-403 512.635,-403 539.585,-403"/>
<polygon fill="black" stroke="black" points="539.731,-406.5 549.731,-403 539.731,-399.5 539.731,-406.5"/>
</g>
<!-- engine braking&#45;&gt;trail braking -->
<g id="edge24" class="edge"><title>engine braking&#45;&gt;trail braking</title>
<path fill="none" stroke="black" d="M458.133,-349C486.42,-349 519.759,-349 548.104,-349"/>
<polygon fill="black" stroke="black" points="548.302,-352.5 558.302,-349 548.302,-345.5 548.302,-352.5"/>
</g>
<!-- figure eight -->
<g id="node24" class="node"><title>figure eight</title>
<ellipse fill="none" stroke="black" cx="1013.23" cy="-41" rx="51.9908" ry="18"/>
<text text-anchor="middle" x="1013.23" y="-37.3" font-family="Times,serif" font-size="14.00">figure eight</text>
</g>
<!-- tight circle&#45;&gt;figure eight -->
<g id="edge27" class="edge"><title>tight circle&#45;&gt;figure eight</title>
<path fill="none" stroke="black" d="M883.134,-41C904.086,-41 928.913,-41 951.171,-41"/>
<polygon fill="black" stroke="black" points="951.194,-44.5001 961.194,-41 951.194,-37.5001 951.194,-44.5001"/>
</g>
<!-- linked braking&#45;&gt;trail braking -->
<g id="edge32" class="edge"><title>linked braking&#45;&gt;trail braking</title>
<path fill="none" stroke="black" d="M441.705,-306.584C476.148,-315.196 523.176,-326.953 558.982,-335.906"/>
<polygon fill="black" stroke="black" points="558.214,-339.321 568.764,-338.351 559.912,-332.53 558.214,-339.321"/>
</g>
<!-- emergency stop -->
<g id="node27" class="node"><title>emergency stop</title>
<ellipse fill="none" stroke="black" cx="612.355" cy="-295" rx="66.8882" ry="18"/>
<text text-anchor="middle" x="612.355" y="-291.3" font-family="Times,serif" font-size="14.00">emergency stop</text>
</g>
<!-- linked braking&#45;&gt;emergency stop -->
<g id="edge33" class="edge"><title>linked braking&#45;&gt;emergency stop</title>
<path fill="none" stroke="black" d="M456.398,-295C480.846,-295 509.282,-295 535.071,-295"/>
<polygon fill="black" stroke="black" points="535.185,-298.5 545.185,-295 535.185,-291.5 535.185,-298.5"/>
</g>
<!-- stoppie -->
<g id="node28" class="node"><title>stoppie</title>
<ellipse fill="none" stroke="black" cx="834.239" cy="-295" rx="36.2938" ry="18"/>
<text text-anchor="middle" x="834.239" y="-291.3" font-family="Times,serif" font-size="14.00">stoppie</text>
</g>
<!-- emergency stop&#45;&gt;stoppie -->
<g id="edge34" class="edge"><title>emergency stop&#45;&gt;stoppie</title>
<path fill="none" stroke="black" d="M679.328,-295C714.219,-295 756.184,-295 787.476,-295"/>
<polygon fill="black" stroke="black" points="787.653,-298.5 797.653,-295 787.653,-291.5 787.653,-298.5"/>
</g>
<!-- blipping while braking -->
<g id="node32" class="node"><title>blipping while braking</title>
<ellipse fill="none" stroke="black" cx="834.239" cy="-511" rx="90.9839" ry="18"/>
<text text-anchor="middle" x="834.239" y="-507.3" font-family="Times,serif" font-size="14.00">blipping while braking</text>
</g>
<!-- rev matching downshift&#45;&gt;blipping while braking -->
<g id="edge38" class="edge"><title>rev matching downshift&#45;&gt;blipping while braking</title>
<path fill="none" stroke="black" d="M707.563,-511C715.932,-511 724.426,-511 732.845,-511"/>
<polygon fill="black" stroke="black" points="733.063,-514.5 743.063,-511 733.063,-507.5 733.063,-514.5"/>
</g>
</g>
</svg>
