<?xml version="1.0" encoding="UTF-8" standalone="no"?>
<!DOCTYPE svg PUBLIC "-//W3C//DTD SVG 1.1//EN"
 "http://www.w3.org/Graphics/SVG/1.1/DTD/svg11.dtd">
<!-- Generated by graphviz version 2.38.0 (20140413.2041)
 -->
<!-- Title: %3 Pages: 1 -->
<svg width="1073pt" height="644pt"
 viewBox="0.00 0.00 1073.22 643.54" xmlns="http://www.w3.org/2000/svg" xmlns:xlink="http://www.w3.org/1999/xlink">
<g id="graph0" class="graph" transform="scale(1 1) rotate(0) translate(4 639.544)">
<title>%3</title>
<polygon fill="white" stroke="none" points="-4,4 -4,-639.544 1069.22,-639.544 1069.22,4 -4,4"/>
<!-- riding -->
<g id="node1" class="node"><title>riding</title>
<ellipse fill="none" stroke="black" cx="31.8472" cy="-239.544" rx="31.6951" ry="18"/>
<text text-anchor="middle" x="31.8472" y="-235.844" font-family="Times,serif" font-size="14.00">riding</text>
</g>
<!-- clutch control -->
<g id="node2" class="node"><title>clutch control</title>
<ellipse fill="none" stroke="black" cx="185.487" cy="-482.544" rx="59.5901" ry="18"/>
<text text-anchor="middle" x="185.487" y="-478.844" font-family="Times,serif" font-size="14.00">clutch control</text>
</g>
<!-- riding&#45;&gt;clutch control -->
<g id="edge1" class="edge"><title>riding&#45;&gt;clutch control</title>
<path fill="none" stroke="black" d="M35.2293,-257.575C40.7771,-293.569 57.4511,-375.425 99.6943,-428.544 110.849,-442.571 126.698,-454.034 141.681,-462.732"/>
<polygon fill="black" stroke="black" points="140.401,-466.023 150.848,-467.789 143.782,-459.894 140.401,-466.023"/>
</g>
<!-- front brake control -->
<g id="node3" class="node"><title>front brake control</title>
<ellipse fill="none" stroke="black" cx="185.487" cy="-239.544" rx="77.1866" ry="18"/>
<text text-anchor="middle" x="185.487" y="-235.844" font-family="Times,serif" font-size="14.00">front brake control</text>
</g>
<!-- riding&#45;&gt;front brake control -->
<g id="edge2" class="edge"><title>riding&#45;&gt;front brake control</title>
<path fill="none" stroke="black" d="M63.8996,-239.544C73.9861,-239.544 85.7193,-239.544 97.8292,-239.544"/>
<polygon fill="black" stroke="black" points="98.0622,-243.044 108.062,-239.544 98.0621,-236.044 98.0622,-243.044"/>
</g>
<!-- rear brake control -->
<g id="node4" class="node"><title>rear brake control</title>
<ellipse fill="none" stroke="black" cx="185.487" cy="-108.544" rx="73.387" ry="18"/>
<text text-anchor="middle" x="185.487" y="-104.844" font-family="Times,serif" font-size="14.00">rear brake control</text>
</g>
<!-- riding&#45;&gt;rear brake control -->
<g id="edge3" class="edge"><title>riding&#45;&gt;rear brake control</title>
<path fill="none" stroke="black" d="M43.9558,-222.883C56.1736,-205.405 77.0945,-177.845 99.6943,-158.544 112.487,-147.619 127.979,-137.703 142.202,-129.636"/>
<polygon fill="black" stroke="black" points="144.256,-132.5 151.325,-124.609 140.877,-126.37 144.256,-132.5"/>
</g>
<!-- throttle control -->
<g id="node5" class="node"><title>throttle control</title>
<ellipse fill="none" stroke="black" cx="185.487" cy="-401.544" rx="63.8893" ry="18"/>
<text text-anchor="middle" x="185.487" y="-397.844" font-family="Times,serif" font-size="14.00">throttle control</text>
</g>
<!-- riding&#45;&gt;throttle control -->
<g id="edge4" class="edge"><title>riding&#45;&gt;throttle control</title>
<path fill="none" stroke="black" d="M43.5675,-256.579C55.9301,-275.597 77.4267,-306.815 99.6943,-330.544 116.029,-347.951 136.497,-365.197 153.231,-378.332"/>
<polygon fill="black" stroke="black" points="151.548,-381.455 161.599,-384.805 155.831,-375.919 151.548,-381.455"/>
</g>
<!-- countersteering -->
<g id="node6" class="node"><title>countersteering</title>
<ellipse fill="none" stroke="black" cx="394.371" cy="-347.544" rx="64.9885" ry="18"/>
<text text-anchor="middle" x="394.371" y="-343.844" font-family="Times,serif" font-size="14.00">countersteering</text>
</g>
<!-- riding&#45;&gt;countersteering -->
<g id="edge5" class="edge"><title>riding&#45;&gt;countersteering</title>
<path fill="none" stroke="black" d="M57.6692,-250.361C70.1505,-255.597 85.5868,-261.767 99.6943,-266.544 179.962,-293.724 274.799,-318.612 334.522,-333.429"/>
<polygon fill="black" stroke="black" points="333.978,-336.9 344.525,-335.898 335.656,-330.104 333.978,-336.9"/>
</g>
<!-- looking ahead -->
<g id="node7" class="node"><title>looking ahead</title>
<ellipse fill="none" stroke="black" cx="185.487" cy="-24.5442" rx="60.3893" ry="18"/>
<text text-anchor="middle" x="185.487" y="-20.8442" font-family="Times,serif" font-size="14.00">looking ahead</text>
</g>
<!-- riding&#45;&gt;looking ahead -->
<g id="edge6" class="edge"><title>riding&#45;&gt;looking ahead</title>
<path fill="none" stroke="black" d="M36.8272,-221.666C44.5117,-190.396 63.8793,-124.974 99.6943,-81.5442 111.77,-66.9015 128.564,-54.5414 144.023,-45.1138"/>
<polygon fill="black" stroke="black" points="146.06,-47.977 152.924,-39.9068 142.526,-41.9348 146.06,-47.977"/>
</g>
<!-- neutral body position -->
<g id="node8" class="node"><title>neutral body position</title>
<ellipse fill="none" stroke="black" cx="185.487" cy="-185.544" rx="85.5853" ry="18"/>
<text text-anchor="middle" x="185.487" y="-181.844" font-family="Times,serif" font-size="14.00">neutral body position</text>
</g>
<!-- riding&#45;&gt;neutral body position -->
<g id="edge7" class="edge"><title>riding&#45;&gt;neutral body position</title>
<path fill="none" stroke="black" d="M57.7519,-228.964C70.2535,-223.786 85.683,-217.596 99.6943,-212.544 108.233,-209.465 117.318,-206.378 126.249,-203.447"/>
<polygon fill="black" stroke="black" points="127.413,-206.75 135.847,-200.337 125.255,-200.091 127.413,-206.75"/>
</g>
<!-- clutch upshift -->
<g id="node18" class="node"><title>clutch upshift</title>
<ellipse fill="none" stroke="black" cx="394.371" cy="-590.544" rx="59.2899" ry="18"/>
<text text-anchor="middle" x="394.371" y="-586.844" font-family="Times,serif" font-size="14.00">clutch upshift</text>
</g>
<!-- clutch control&#45;&gt;clutch upshift -->
<g id="edge18" class="edge"><title>clutch control&#45;&gt;clutch upshift</title>
<path fill="none" stroke="black" d="M216.128,-498.018C252.615,-517.065 314.662,-549.456 354.821,-570.42"/>
<polygon fill="black" stroke="black" points="353.3,-573.574 363.785,-575.099 356.54,-567.369 353.3,-573.574"/>
</g>
<!-- clutch downshift -->
<g id="node19" class="node"><title>clutch downshift</title>
<ellipse fill="none" stroke="black" cx="394.371" cy="-509.544" rx="69.5877" ry="18"/>
<text text-anchor="middle" x="394.371" y="-505.844" font-family="Times,serif" font-size="14.00">clutch downshift</text>
</g>
<!-- clutch control&#45;&gt;clutch downshift -->
<g id="edge19" class="edge"><title>clutch control&#45;&gt;clutch downshift</title>
<path fill="none" stroke="black" d="M240.573,-489.603C265.415,-492.845 295.216,-496.734 321.878,-500.214"/>
<polygon fill="black" stroke="black" points="321.557,-503.702 331.926,-501.525 322.463,-496.76 321.557,-503.702"/>
</g>
<!-- clutch wheelie -->
<g id="node20" class="node"><title>clutch wheelie</title>
<ellipse fill="none" stroke="black" cx="394.371" cy="-455.544" rx="61.99" ry="18"/>
<text text-anchor="middle" x="394.371" y="-451.844" font-family="Times,serif" font-size="14.00">clutch wheelie</text>
</g>
<!-- clutch control&#45;&gt;clutch wheelie -->
<g id="edge20" class="edge"><title>clutch control&#45;&gt;clutch wheelie</title>
<path fill="none" stroke="black" d="M240.573,-475.486C267.23,-472.007 299.599,-467.782 327.67,-464.119"/>
<polygon fill="black" stroke="black" points="328.336,-467.562 337.799,-462.797 327.431,-460.62 328.336,-467.562"/>
</g>
<!-- linked braking -->
<g id="node28" class="node"><title>linked braking</title>
<ellipse fill="none" stroke="black" cx="394.371" cy="-239.544" rx="61.99" ry="18"/>
<text text-anchor="middle" x="394.371" y="-235.844" font-family="Times,serif" font-size="14.00">linked braking</text>
</g>
<!-- front brake control&#45;&gt;linked braking -->
<g id="edge33" class="edge"><title>front brake control&#45;&gt;linked braking</title>
<path fill="none" stroke="black" d="M262.935,-239.544C282.351,-239.544 303.132,-239.544 322.27,-239.544"/>
<polygon fill="black" stroke="black" points="322.413,-243.044 332.413,-239.544 322.413,-236.044 322.413,-243.044"/>
</g>
<!-- U&#45;turn -->
<g id="node13" class="node"><title>U&#45;turn</title>
<ellipse fill="none" stroke="black" cx="612.355" cy="-85.5442" rx="34.394" ry="18"/>
<text text-anchor="middle" x="612.355" y="-81.8442" font-family="Times,serif" font-size="14.00">U&#45;turn</text>
</g>
<!-- rear brake control&#45;&gt;U&#45;turn -->
<g id="edge30" class="edge"><title>rear brake control&#45;&gt;U&#45;turn</title>
<path fill="none" stroke="black" d="M257.6,-104.695C346.087,-99.9044 494.442,-91.8732 567.706,-87.9072"/>
<polygon fill="black" stroke="black" points="568.158,-91.3879 577.954,-87.3524 567.78,-84.3981 568.158,-91.3879"/>
</g>
<!-- backing in -->
<g id="node27" class="node"><title>backing in</title>
<ellipse fill="none" stroke="black" cx="394.371" cy="-39.5442" rx="48.1917" ry="18"/>
<text text-anchor="middle" x="394.371" y="-35.8442" font-family="Times,serif" font-size="14.00">backing in</text>
</g>
<!-- rear brake control&#45;&gt;backing in -->
<g id="edge31" class="edge"><title>rear brake control&#45;&gt;backing in</title>
<path fill="none" stroke="black" d="M229.857,-94.0796C264.622,-82.4845 313.242,-66.269 348.419,-54.5366"/>
<polygon fill="black" stroke="black" points="349.583,-57.8381 357.962,-51.354 347.368,-51.1977 349.583,-57.8381"/>
</g>
<!-- rear brake control&#45;&gt;linked braking -->
<g id="edge32" class="edge"><title>rear brake control&#45;&gt;linked braking</title>
<path fill="none" stroke="black" d="M221.072,-124.385C237.472,-132.978 256.632,-144.684 271.279,-158.544 292.23,-178.37 284.201,-195.241 307.279,-212.544 314.907,-218.263 323.773,-222.789 332.858,-226.365"/>
<polygon fill="black" stroke="black" points="331.768,-229.692 342.363,-229.759 334.122,-223.1 331.768,-229.692"/>
</g>
<!-- throttle control&#45;&gt;clutch wheelie -->
<g id="edge21" class="edge"><title>throttle control&#45;&gt;clutch wheelie</title>
<path fill="none" stroke="black" d="M232.916,-413.663C264.01,-421.779 305.098,-432.504 337.912,-441.068"/>
<polygon fill="black" stroke="black" points="337.25,-444.513 347.81,-443.652 339.018,-437.74 337.25,-444.513"/>
</g>
<!-- engine braking -->
<g id="node23" class="node"><title>engine braking</title>
<ellipse fill="none" stroke="black" cx="394.371" cy="-401.544" rx="63.8893" ry="18"/>
<text text-anchor="middle" x="394.371" y="-397.844" font-family="Times,serif" font-size="14.00">engine braking</text>
</g>
<!-- throttle control&#45;&gt;engine braking -->
<g id="edge25" class="edge"><title>throttle control&#45;&gt;engine braking</title>
<path fill="none" stroke="black" d="M249.402,-401.544C271.77,-401.544 297.141,-401.544 320.287,-401.544"/>
<polygon fill="black" stroke="black" points="320.399,-405.044 330.399,-401.544 320.399,-398.044 320.399,-405.044"/>
</g>
<!-- simple&#45;radius turn -->
<g id="node14" class="node"><title>simple&#45;radius turn</title>
<ellipse fill="none" stroke="black" cx="612.355" cy="-293.544" rx="75.2868" ry="18"/>
<text text-anchor="middle" x="612.355" y="-289.844" font-family="Times,serif" font-size="14.00">simple&#45;radius turn</text>
</g>
<!-- countersteering&#45;&gt;simple&#45;radius turn -->
<g id="edge13" class="edge"><title>countersteering&#45;&gt;simple&#45;radius turn</title>
<path fill="none" stroke="black" d="M443.305,-335.56C474.637,-327.726 515.86,-317.42 549.635,-308.975"/>
<polygon fill="black" stroke="black" points="550.55,-312.354 559.403,-306.533 548.852,-305.563 550.55,-312.354"/>
</g>
<!-- trail braking -->
<g id="node21" class="node"><title>trail braking</title>
<ellipse fill="none" stroke="black" cx="612.355" cy="-347.544" rx="53.8905" ry="18"/>
<text text-anchor="middle" x="612.355" y="-343.844" font-family="Times,serif" font-size="14.00">trail braking</text>
</g>
<!-- countersteering&#45;&gt;trail braking -->
<g id="edge23" class="edge"><title>countersteering&#45;&gt;trail braking</title>
<path fill="none" stroke="black" d="M459.589,-347.544C487.608,-347.544 520.36,-347.544 548.251,-347.544"/>
<polygon fill="black" stroke="black" points="548.29,-351.044 558.29,-347.544 548.289,-344.044 548.29,-351.044"/>
</g>
<!-- swerve -->
<g id="node22" class="node"><title>swerve</title>
<ellipse fill="none" stroke="black" cx="612.355" cy="-401.544" rx="35.9954" ry="18"/>
<text text-anchor="middle" x="612.355" y="-397.844" font-family="Times,serif" font-size="14.00">swerve</text>
</g>
<!-- countersteering&#45;&gt;swerve -->
<g id="edge24" class="edge"><title>countersteering&#45;&gt;swerve</title>
<path fill="none" stroke="black" d="M443.305,-359.529C481.361,-369.043 534.006,-382.205 570.177,-391.249"/>
<polygon fill="black" stroke="black" points="569.367,-394.654 579.917,-393.684 571.064,-387.863 569.367,-394.654"/>
</g>
<!-- looking ahead&#45;&gt;U&#45;turn -->
<g id="edge22" class="edge"><title>looking ahead&#45;&gt;U&#45;turn</title>
<path fill="none" stroke="black" d="M234.668,-14.0658C293.848,-3.12338 396.8,9.61649 481.464,-12.5442 519.967,-22.6225 559.107,-46.9552 584.211,-64.7678"/>
<polygon fill="black" stroke="black" points="582.33,-67.7272 592.481,-70.7623 586.438,-62.0595 582.33,-67.7272"/>
</g>
<!-- inside body position -->
<g id="node9" class="node"><title>inside body position</title>
<ellipse fill="none" stroke="black" cx="394.371" cy="-293.544" rx="82.5854" ry="18"/>
<text text-anchor="middle" x="394.371" y="-289.844" font-family="Times,serif" font-size="14.00">inside body position</text>
</g>
<!-- neutral body position&#45;&gt;inside body position -->
<g id="edge8" class="edge"><title>neutral body position&#45;&gt;inside body position</title>
<path fill="none" stroke="black" d="M245.586,-198.632C254.709,-202.227 263.628,-206.782 271.279,-212.544 294.319,-229.898 284.201,-249.241 307.279,-266.544 312.752,-270.648 318.864,-274.137 325.236,-277.102"/>
<polygon fill="black" stroke="black" points="324.14,-280.438 334.716,-281.082 326.85,-273.984 324.14,-280.438"/>
</g>
<!-- aft body position -->
<g id="node10" class="node"><title>aft body position</title>
<ellipse fill="none" stroke="black" cx="394.371" cy="-185.544" rx="70.6878" ry="18"/>
<text text-anchor="middle" x="394.371" y="-181.844" font-family="Times,serif" font-size="14.00">aft body position</text>
</g>
<!-- neutral body position&#45;&gt;aft body position -->
<g id="edge9" class="edge"><title>neutral body position&#45;&gt;aft body position</title>
<path fill="none" stroke="black" d="M271.53,-185.544C285.296,-185.544 299.511,-185.544 313.157,-185.544"/>
<polygon fill="black" stroke="black" points="313.464,-189.044 323.464,-185.544 313.464,-182.044 313.464,-189.044"/>
</g>
<!-- outside body position -->
<g id="node12" class="node"><title>outside body position</title>
<ellipse fill="none" stroke="black" cx="394.371" cy="-131.544" rx="87.1846" ry="18"/>
<text text-anchor="middle" x="394.371" y="-127.844" font-family="Times,serif" font-size="14.00">outside body position</text>
</g>
<!-- neutral body position&#45;&gt;outside body position -->
<g id="edge11" class="edge"><title>neutral body position&#45;&gt;outside body position</title>
<path fill="none" stroke="black" d="M240.034,-171.568C267.451,-164.411 301.017,-155.65 329.747,-148.151"/>
<polygon fill="black" stroke="black" points="330.898,-151.468 339.69,-145.556 329.13,-144.695 330.898,-151.468"/>
</g>
<!-- inside body position&#45;&gt;simple&#45;radius turn -->
<g id="edge16" class="edge"><title>inside body position&#45;&gt;simple&#45;radius turn</title>
<path fill="none" stroke="black" d="M477.026,-293.544C493.25,-293.544 510.318,-293.544 526.642,-293.544"/>
<polygon fill="black" stroke="black" points="526.695,-297.044 536.695,-293.544 526.695,-290.044 526.695,-297.044"/>
</g>
<!-- emergency stop -->
<g id="node11" class="node"><title>emergency stop</title>
<ellipse fill="none" stroke="black" cx="612.355" cy="-185.544" rx="66.8882" ry="18"/>
<text text-anchor="middle" x="612.355" y="-181.844" font-family="Times,serif" font-size="14.00">emergency stop</text>
</g>
<!-- aft body position&#45;&gt;emergency stop -->
<g id="edge10" class="edge"><title>aft body position&#45;&gt;emergency stop</title>
<path fill="none" stroke="black" d="M465.495,-185.544C487.713,-185.544 512.379,-185.544 535.011,-185.544"/>
<polygon fill="black" stroke="black" points="535.251,-189.044 545.251,-185.544 535.251,-182.044 535.251,-189.044"/>
</g>
<!-- stoppie -->
<g id="node29" class="node"><title>stoppie</title>
<ellipse fill="none" stroke="black" cx="834.239" cy="-185.544" rx="36.2938" ry="18"/>
<text text-anchor="middle" x="834.239" y="-181.844" font-family="Times,serif" font-size="14.00">stoppie</text>
</g>
<!-- emergency stop&#45;&gt;stoppie -->
<g id="edge36" class="edge"><title>emergency stop&#45;&gt;stoppie</title>
<path fill="none" stroke="black" d="M679.328,-185.544C714.219,-185.544 756.184,-185.544 787.476,-185.544"/>
<polygon fill="black" stroke="black" points="787.653,-189.044 797.653,-185.544 787.653,-182.044 787.653,-189.044"/>
</g>
<!-- outside body position&#45;&gt;U&#45;turn -->
<g id="edge12" class="edge"><title>outside body position&#45;&gt;U&#45;turn</title>
<path fill="none" stroke="black" d="M455.822,-118.669C492.307,-110.899 537.838,-101.202 570.188,-94.312"/>
<polygon fill="black" stroke="black" points="571.148,-97.686 580.2,-92.1797 569.69,-90.8396 571.148,-97.686"/>
</g>
<!-- tight circle -->
<g id="node25" class="node"><title>tight circle</title>
<ellipse fill="none" stroke="black" cx="834.239" cy="-85.5442" rx="48.9926" ry="18"/>
<text text-anchor="middle" x="834.239" y="-81.8442" font-family="Times,serif" font-size="14.00">tight circle</text>
</g>
<!-- U&#45;turn&#45;&gt;tight circle -->
<g id="edge28" class="edge"><title>U&#45;turn&#45;&gt;tight circle</title>
<path fill="none" stroke="black" d="M647.23,-85.5442C681.324,-85.5442 734.561,-85.5442 775.36,-85.5442"/>
<polygon fill="black" stroke="black" points="775.446,-89.0443 785.446,-85.5442 775.446,-82.0443 775.446,-89.0443"/>
</g>
<!-- compound&#45;radius turn -->
<g id="node15" class="node"><title>compound&#45;radius turn</title>
<ellipse fill="none" stroke="black" cx="834.239" cy="-347.544" rx="89.0842" ry="18"/>
<text text-anchor="middle" x="834.239" y="-343.844" font-family="Times,serif" font-size="14.00">compound&#45;radius turn</text>
</g>
<!-- simple&#45;radius turn&#45;&gt;compound&#45;radius turn -->
<g id="edge14" class="edge"><title>simple&#45;radius turn&#45;&gt;compound&#45;radius turn</title>
<path fill="none" stroke="black" d="M665.465,-306.341C695.849,-313.803 734.471,-323.288 766.998,-331.277"/>
<polygon fill="black" stroke="black" points="766.335,-334.718 776.881,-333.704 768.004,-327.92 766.335,-334.718"/>
</g>
<!-- off&#45;camber turn -->
<g id="node16" class="node"><title>off&#45;camber turn</title>
<ellipse fill="none" stroke="black" cx="834.239" cy="-293.544" rx="66.8882" ry="18"/>
<text text-anchor="middle" x="834.239" y="-289.844" font-family="Times,serif" font-size="14.00">off&#45;camber turn</text>
</g>
<!-- simple&#45;radius turn&#45;&gt;off&#45;camber turn -->
<g id="edge15" class="edge"><title>simple&#45;radius turn&#45;&gt;off&#45;camber turn</title>
<path fill="none" stroke="black" d="M687.798,-293.544C710.055,-293.544 734.486,-293.544 756.864,-293.544"/>
<polygon fill="black" stroke="black" points="756.987,-297.044 766.987,-293.544 756.987,-290.044 756.987,-297.044"/>
</g>
<!-- chicane -->
<g id="node17" class="node"><title>chicane</title>
<ellipse fill="none" stroke="black" cx="834.239" cy="-239.544" rx="37.8943" ry="18"/>
<text text-anchor="middle" x="834.239" y="-235.844" font-family="Times,serif" font-size="14.00">chicane</text>
</g>
<!-- simple&#45;radius turn&#45;&gt;chicane -->
<g id="edge17" class="edge"><title>simple&#45;radius turn&#45;&gt;chicane</title>
<path fill="none" stroke="black" d="M665.465,-280.747C703.493,-271.408 754.426,-258.899 790.162,-250.123"/>
<polygon fill="black" stroke="black" points="791.397,-253.424 800.274,-247.64 789.727,-246.626 791.397,-253.424"/>
</g>
<!-- clutchless upshift -->
<g id="node30" class="node"><title>clutchless upshift</title>
<ellipse fill="none" stroke="black" cx="612.355" cy="-617.544" rx="72.2875" ry="18"/>
<text text-anchor="middle" x="612.355" y="-613.844" font-family="Times,serif" font-size="14.00">clutchless upshift</text>
</g>
<!-- clutch upshift&#45;&gt;clutchless upshift -->
<g id="edge37" class="edge"><title>clutch upshift&#45;&gt;clutchless upshift</title>
<path fill="none" stroke="black" d="M449.316,-597.288C475.917,-600.613 508.413,-604.675 537.302,-608.287"/>
<polygon fill="black" stroke="black" points="536.997,-611.776 547.354,-609.544 537.866,-604.83 536.997,-611.776"/>
</g>
<!-- clutchless downshift -->
<g id="node31" class="node"><title>clutchless downshift</title>
<ellipse fill="none" stroke="black" cx="612.355" cy="-509.544" rx="83.3857" ry="18"/>
<text text-anchor="middle" x="612.355" y="-505.844" font-family="Times,serif" font-size="14.00">clutchless downshift</text>
</g>
<!-- clutch downshift&#45;&gt;clutchless downshift -->
<g id="edge38" class="edge"><title>clutch downshift&#45;&gt;clutchless downshift</title>
<path fill="none" stroke="black" d="M464.007,-509.544C481.412,-509.544 500.397,-509.544 518.774,-509.544"/>
<polygon fill="black" stroke="black" points="518.907,-513.044 528.907,-509.544 518.907,-506.044 518.907,-513.044"/>
</g>
<!-- rev matching downshift -->
<g id="node32" class="node"><title>rev matching downshift</title>
<ellipse fill="none" stroke="black" cx="612.355" cy="-563.544" rx="94.7833" ry="18"/>
<text text-anchor="middle" x="612.355" y="-559.844" font-family="Times,serif" font-size="14.00">rev matching downshift</text>
</g>
<!-- clutch downshift&#45;&gt;rev matching downshift -->
<g id="edge39" class="edge"><title>clutch downshift&#45;&gt;rev matching downshift</title>
<path fill="none" stroke="black" d="M444.922,-521.933C474.381,-529.298 512.141,-538.739 544.246,-546.766"/>
<polygon fill="black" stroke="black" points="543.462,-550.177 554.013,-549.208 545.16,-543.386 543.462,-550.177"/>
</g>
<!-- power wheelie -->
<g id="node24" class="node"><title>power wheelie</title>
<ellipse fill="none" stroke="black" cx="612.355" cy="-455.544" rx="62.2891" ry="18"/>
<text text-anchor="middle" x="612.355" y="-451.844" font-family="Times,serif" font-size="14.00">power wheelie</text>
</g>
<!-- clutch wheelie&#45;&gt;power wheelie -->
<g id="edge27" class="edge"><title>clutch wheelie&#45;&gt;power wheelie</title>
<path fill="none" stroke="black" d="M456.398,-455.544C482.281,-455.544 512.635,-455.544 539.585,-455.544"/>
<polygon fill="black" stroke="black" points="539.731,-459.044 549.731,-455.544 539.731,-452.044 539.731,-459.044"/>
</g>
<!-- engine braking&#45;&gt;trail braking -->
<g id="edge26" class="edge"><title>engine braking&#45;&gt;trail braking</title>
<path fill="none" stroke="black" d="M442.77,-389.694C477.015,-381.132 523.279,-369.565 558.68,-360.714"/>
<polygon fill="black" stroke="black" points="559.971,-363.999 568.824,-358.178 558.273,-357.208 559.971,-363.999"/>
</g>
<!-- figure eight -->
<g id="node26" class="node"><title>figure eight</title>
<ellipse fill="none" stroke="black" cx="1013.23" cy="-85.5442" rx="51.9908" ry="18"/>
<text text-anchor="middle" x="1013.23" y="-81.8442" font-family="Times,serif" font-size="14.00">figure eight</text>
</g>
<!-- tight circle&#45;&gt;figure eight -->
<g id="edge29" class="edge"><title>tight circle&#45;&gt;figure eight</title>
<path fill="none" stroke="black" d="M883.134,-85.5442C904.086,-85.5442 928.913,-85.5442 951.171,-85.5442"/>
<polygon fill="black" stroke="black" points="951.194,-89.0443 961.194,-85.5442 951.194,-82.0443 951.194,-89.0443"/>
</g>
<!-- linked braking&#45;&gt;emergency stop -->
<g id="edge35" class="edge"><title>linked braking&#45;&gt;emergency stop</title>
<path fill="none" stroke="black" d="M441.705,-227.96C474.196,-219.837 517.885,-208.914 552.79,-200.187"/>
<polygon fill="black" stroke="black" points="553.998,-203.492 562.851,-197.671 552.3,-196.701 553.998,-203.492"/>
</g>
<!-- linked braking&#45;&gt;trail braking -->
<g id="edge34" class="edge"><title>linked braking&#45;&gt;trail braking</title>
<path fill="none" stroke="black" d="M446.38,-249.329C458.66,-253.3 471.187,-258.839 481.464,-266.544 504.542,-283.847 494.18,-303.518 517.464,-320.544 527.835,-328.128 540.289,-333.588 552.685,-337.517"/>
<polygon fill="black" stroke="black" points="551.997,-340.96 562.574,-340.35 553.925,-334.231 551.997,-340.96"/>
</g>
<!-- blipping while braking -->
<g id="node33" class="node"><title>blipping while braking</title>
<ellipse fill="none" stroke="black" cx="834.239" cy="-563.544" rx="90.9839" ry="18"/>
<text text-anchor="middle" x="834.239" y="-559.844" font-family="Times,serif" font-size="14.00">blipping while braking</text>
</g>
<!-- rev matching downshift&#45;&gt;blipping while braking -->
<g id="edge40" class="edge"><title>rev matching downshift&#45;&gt;blipping while braking</title>
<path fill="none" stroke="black" d="M707.563,-563.544C715.932,-563.544 724.426,-563.544 732.845,-563.544"/>
<polygon fill="black" stroke="black" points="733.063,-567.044 743.063,-563.544 733.063,-560.044 733.063,-567.044"/>
</g>
</g>
</svg>
