<?xml version="1.0" encoding="UTF-8" standalone="no"?>
<!DOCTYPE svg PUBLIC "-//W3C//DTD SVG 1.1//EN"
 "http://www.w3.org/Graphics/SVG/1.1/DTD/svg11.dtd">
<!-- Generated by graphviz version 2.38.0 (20140413.2041)
 -->
<!-- Title: %3 Pages: 1 -->
<svg width="1073pt" height="700pt"
 viewBox="0.00 0.00 1073.22 700.00" xmlns="http://www.w3.org/2000/svg" xmlns:xlink="http://www.w3.org/1999/xlink">
<g id="graph0" class="graph" transform="scale(1 1) rotate(0) translate(4 696)">
<title>%3</title>
<polygon fill="white" stroke="none" points="-4,4 -4,-696 1069.22,-696 1069.22,4 -4,4"/>
<!-- riding -->
<g id="node1" class="node"><title>riding</title>
<ellipse fill="none" stroke="black" cx="31.8472" cy="-296" rx="31.6951" ry="18"/>
<text text-anchor="middle" x="31.8472" y="-292.3" font-family="Times,serif" font-size="14.00">riding</text>
</g>
<!-- clutch control -->
<g id="node2" class="node"><title>clutch control</title>
<ellipse fill="none" stroke="black" cx="185.487" cy="-512" rx="59.5901" ry="18"/>
<text text-anchor="middle" x="185.487" y="-508.3" font-family="Times,serif" font-size="14.00">clutch control</text>
</g>
<!-- riding&#45;&gt;clutch control -->
<g id="edge1" class="edge"><title>riding&#45;&gt;clutch control</title>
<path fill="none" stroke="black" d="M36.4814,-313.916C43.7259,-345.918 62.5623,-413.694 99.6943,-458 111.206,-471.736 127.126,-483.141 142.065,-491.874"/>
<polygon fill="black" stroke="black" points="140.753,-495.15 151.191,-496.964 144.162,-489.037 140.753,-495.15"/>
</g>
<!-- front brake control -->
<g id="node3" class="node"><title>front brake control</title>
<ellipse fill="none" stroke="black" cx="185.487" cy="-296" rx="77.1866" ry="18"/>
<text text-anchor="middle" x="185.487" y="-292.3" font-family="Times,serif" font-size="14.00">front brake control</text>
</g>
<!-- riding&#45;&gt;front brake control -->
<g id="edge2" class="edge"><title>riding&#45;&gt;front brake control</title>
<path fill="none" stroke="black" d="M63.8996,-296C73.9861,-296 85.7193,-296 97.8292,-296"/>
<polygon fill="black" stroke="black" points="98.0622,-299.5 108.062,-296 98.0621,-292.5 98.0622,-299.5"/>
</g>
<!-- rear brake control -->
<g id="node4" class="node"><title>rear brake control</title>
<ellipse fill="none" stroke="black" cx="185.487" cy="-116" rx="73.387" ry="18"/>
<text text-anchor="middle" x="185.487" y="-112.3" font-family="Times,serif" font-size="14.00">rear brake control</text>
</g>
<!-- riding&#45;&gt;rear brake control -->
<g id="edge3" class="edge"><title>riding&#45;&gt;rear brake control</title>
<path fill="none" stroke="black" d="M42.2527,-278.66C54.1885,-257.4 76.0824,-220.773 99.6943,-193 116.187,-173.601 137.394,-154.344 154.474,-139.94"/>
<polygon fill="black" stroke="black" points="157.035,-142.363 162.488,-133.28 152.561,-136.98 157.035,-142.363"/>
</g>
<!-- throttle control -->
<g id="node5" class="node"><title>throttle control</title>
<ellipse fill="none" stroke="black" cx="185.487" cy="-431" rx="63.8893" ry="18"/>
<text text-anchor="middle" x="185.487" y="-427.3" font-family="Times,serif" font-size="14.00">throttle control</text>
</g>
<!-- riding&#45;&gt;throttle control -->
<g id="edge4" class="edge"><title>riding&#45;&gt;throttle control</title>
<path fill="none" stroke="black" d="M48.5046,-311.561C61.8769,-324.712 81.7414,-343.922 99.6943,-360 117.886,-376.292 138.931,-393.921 155.504,-407.536"/>
<polygon fill="black" stroke="black" points="153.293,-410.25 163.249,-413.875 157.727,-404.833 153.293,-410.25"/>
</g>
<!-- countersteering -->
<g id="node6" class="node"><title>countersteering</title>
<ellipse fill="none" stroke="black" cx="394.371" cy="-350" rx="64.9885" ry="18"/>
<text text-anchor="middle" x="394.371" y="-346.3" font-family="Times,serif" font-size="14.00">countersteering</text>
</g>
<!-- riding&#45;&gt;countersteering -->
<g id="edge5" class="edge"><title>riding&#45;&gt;countersteering</title>
<path fill="none" stroke="black" d="M56.421,-307.492C68.9766,-313.103 84.8541,-319.403 99.6943,-323 172.957,-340.756 259.089,-347.019 319.054,-349.136"/>
<polygon fill="black" stroke="black" points="319.083,-352.638 329.191,-349.463 319.309,-345.642 319.083,-352.638"/>
</g>
<!-- looking ahead -->
<g id="node7" class="node"><title>looking ahead</title>
<ellipse fill="none" stroke="black" cx="185.487" cy="-18" rx="60.3893" ry="18"/>
<text text-anchor="middle" x="185.487" y="-14.3" font-family="Times,serif" font-size="14.00">looking ahead</text>
</g>
<!-- riding&#45;&gt;looking ahead -->
<g id="edge6" class="edge"><title>riding&#45;&gt;looking ahead</title>
<path fill="none" stroke="black" d="M35.237,-277.914C40.9437,-240.018 58.1157,-150.694 99.6943,-89 112.789,-69.5705 132.667,-52.5313 149.885,-40.0185"/>
<polygon fill="black" stroke="black" points="151.92,-42.8665 158.083,-34.2488 147.891,-37.1421 151.92,-42.8665"/>
</g>
<!-- neutral body position -->
<g id="node8" class="node"><title>neutral body position</title>
<ellipse fill="none" stroke="black" cx="185.487" cy="-220" rx="85.5853" ry="18"/>
<text text-anchor="middle" x="185.487" y="-216.3" font-family="Times,serif" font-size="14.00">neutral body position</text>
</g>
<!-- riding&#45;&gt;neutral body position -->
<g id="edge7" class="edge"><title>riding&#45;&gt;neutral body position</title>
<path fill="none" stroke="black" d="M56.2085,-284.292C79.0486,-272.844 114.346,-255.154 142.137,-241.225"/>
<polygon fill="black" stroke="black" points="143.874,-244.27 151.245,-236.66 140.737,-238.012 143.874,-244.27"/>
</g>
<!-- clutch upshift -->
<g id="node18" class="node"><title>clutch upshift</title>
<ellipse fill="none" stroke="black" cx="394.371" cy="-566" rx="59.2899" ry="18"/>
<text text-anchor="middle" x="394.371" y="-562.3" font-family="Times,serif" font-size="14.00">clutch upshift</text>
</g>
<!-- clutch control&#45;&gt;clutch upshift -->
<g id="edge18" class="edge"><title>clutch control&#45;&gt;clutch upshift</title>
<path fill="none" stroke="black" d="M231.123,-523.651C262.8,-531.919 305.495,-543.063 339.137,-551.844"/>
<polygon fill="black" stroke="black" points="338.255,-555.231 348.815,-554.37 340.023,-548.458 338.255,-555.231"/>
</g>
<!-- clutch downshift -->
<g id="node19" class="node"><title>clutch downshift</title>
<ellipse fill="none" stroke="black" cx="394.371" cy="-620" rx="69.5877" ry="18"/>
<text text-anchor="middle" x="394.371" y="-616.3" font-family="Times,serif" font-size="14.00">clutch downshift</text>
</g>
<!-- clutch control&#45;&gt;clutch downshift -->
<g id="edge19" class="edge"><title>clutch control&#45;&gt;clutch downshift</title>
<path fill="none" stroke="black" d="M207.61,-528.925C230.871,-546.884 269.944,-575.089 307.279,-593 315.979,-597.174 325.477,-600.902 334.886,-604.158"/>
<polygon fill="black" stroke="black" points="334.027,-607.56 344.62,-607.379 336.226,-600.915 334.027,-607.56"/>
</g>
<!-- clutch wheelie -->
<g id="node20" class="node"><title>clutch wheelie</title>
<ellipse fill="none" stroke="black" cx="394.371" cy="-512" rx="61.99" ry="18"/>
<text text-anchor="middle" x="394.371" y="-508.3" font-family="Times,serif" font-size="14.00">clutch wheelie</text>
</g>
<!-- clutch control&#45;&gt;clutch wheelie -->
<g id="edge20" class="edge"><title>clutch control&#45;&gt;clutch wheelie</title>
<path fill="none" stroke="black" d="M245.495,-512C269.428,-512 297.279,-512 322.315,-512"/>
<polygon fill="black" stroke="black" points="322.486,-515.5 332.486,-512 322.486,-508.5 322.486,-515.5"/>
</g>
<!-- launch -->
<g id="node34" class="node"><title>launch</title>
<ellipse fill="none" stroke="black" cx="394.371" cy="-458" rx="34.394" ry="18"/>
<text text-anchor="middle" x="394.371" y="-454.3" font-family="Times,serif" font-size="14.00">launch</text>
</g>
<!-- clutch control&#45;&gt;launch -->
<g id="edge41" class="edge"><title>clutch control&#45;&gt;launch</title>
<path fill="none" stroke="black" d="M231.123,-500.349C267.449,-490.868 318.264,-477.604 353.3,-468.459"/>
<polygon fill="black" stroke="black" points="354.393,-471.791 363.185,-465.879 352.625,-465.018 354.393,-471.791"/>
</g>
<!-- linked braking -->
<g id="node28" class="node"><title>linked braking</title>
<ellipse fill="none" stroke="black" cx="394.371" cy="-296" rx="61.99" ry="18"/>
<text text-anchor="middle" x="394.371" y="-292.3" font-family="Times,serif" font-size="14.00">linked braking</text>
</g>
<!-- front brake control&#45;&gt;linked braking -->
<g id="edge33" class="edge"><title>front brake control&#45;&gt;linked braking</title>
<path fill="none" stroke="black" d="M262.935,-296C282.351,-296 303.132,-296 322.27,-296"/>
<polygon fill="black" stroke="black" points="322.413,-299.5 332.413,-296 322.413,-292.5 322.413,-299.5"/>
</g>
<!-- u&#45;turn -->
<g id="node13" class="node"><title>u&#45;turn</title>
<ellipse fill="none" stroke="black" cx="612.355" cy="-88" rx="32.4942" ry="18"/>
<text text-anchor="middle" x="612.355" y="-84.3" font-family="Times,serif" font-size="14.00">u&#45;turn</text>
</g>
<!-- rear brake control&#45;&gt;u&#45;turn -->
<g id="edge30" class="edge"><title>rear brake control&#45;&gt;u&#45;turn</title>
<path fill="none" stroke="black" d="M255.782,-110.694C272.631,-109.443 290.6,-108.142 307.279,-107 400.923,-100.586 510.852,-93.9346 569.492,-90.4569"/>
<polygon fill="black" stroke="black" points="570.054,-93.9299 579.829,-89.8452 569.64,-86.9421 570.054,-93.9299"/>
</g>
<!-- backing in -->
<g id="node27" class="node"><title>backing in</title>
<ellipse fill="none" stroke="black" cx="394.371" cy="-42" rx="48.1917" ry="18"/>
<text text-anchor="middle" x="394.371" y="-38.3" font-family="Times,serif" font-size="14.00">backing in</text>
</g>
<!-- rear brake control&#45;&gt;backing in -->
<g id="edge31" class="edge"><title>rear brake control&#45;&gt;backing in</title>
<path fill="none" stroke="black" d="M227.856,-101.203C262.994,-88.6345 313.295,-70.6422 349.208,-57.7967"/>
<polygon fill="black" stroke="black" points="350.694,-60.9824 358.931,-54.3189 348.336,-54.3914 350.694,-60.9824"/>
</g>
<!-- rear brake control&#45;&gt;linked braking -->
<g id="edge32" class="edge"><title>rear brake control&#45;&gt;linked braking</title>
<path fill="none" stroke="black" d="M210.045,-133.22C228.496,-147.615 253.871,-169.518 271.279,-193 293.538,-223.025 279.086,-244.463 307.279,-269 314.221,-275.042 322.511,-279.732 331.165,-283.374"/>
<polygon fill="black" stroke="black" points="330.058,-286.697 340.651,-286.928 332.514,-280.142 330.058,-286.697"/>
</g>
<!-- throttle control&#45;&gt;clutch wheelie -->
<g id="edge21" class="edge"><title>throttle control&#45;&gt;clutch wheelie</title>
<path fill="none" stroke="black" d="M218.36,-446.473C242.47,-457.877 276.561,-473.362 307.279,-485 317.709,-488.952 328.997,-492.794 339.86,-496.282"/>
<polygon fill="black" stroke="black" points="339.089,-499.708 349.678,-499.378 341.194,-493.032 339.089,-499.708"/>
</g>
<!-- engine braking -->
<g id="node23" class="node"><title>engine braking</title>
<ellipse fill="none" stroke="black" cx="394.371" cy="-404" rx="63.8893" ry="18"/>
<text text-anchor="middle" x="394.371" y="-400.3" font-family="Times,serif" font-size="14.00">engine braking</text>
</g>
<!-- throttle control&#45;&gt;engine braking -->
<g id="edge25" class="edge"><title>throttle control&#45;&gt;engine braking</title>
<path fill="none" stroke="black" d="M243.567,-423.551C269.126,-420.215 299.446,-416.258 326.101,-412.779"/>
<polygon fill="black" stroke="black" points="326.656,-416.237 336.119,-411.472 325.75,-409.295 326.656,-416.237"/>
</g>
<!-- throttle control&#45;&gt;launch -->
<g id="edge42" class="edge"><title>throttle control&#45;&gt;launch</title>
<path fill="none" stroke="black" d="M243.567,-438.449C277.415,-442.867 319.614,-448.374 350.591,-452.417"/>
<polygon fill="black" stroke="black" points="350.268,-455.904 360.637,-453.728 351.174,-448.963 350.268,-455.904"/>
</g>
<!-- simple&#45;radius turn -->
<g id="node14" class="node"><title>simple&#45;radius turn</title>
<ellipse fill="none" stroke="black" cx="612.355" cy="-296" rx="75.2868" ry="18"/>
<text text-anchor="middle" x="612.355" y="-292.3" font-family="Times,serif" font-size="14.00">simple&#45;radius turn</text>
</g>
<!-- countersteering&#45;&gt;simple&#45;radius turn -->
<g id="edge13" class="edge"><title>countersteering&#45;&gt;simple&#45;radius turn</title>
<path fill="none" stroke="black" d="M443.305,-338.016C474.637,-330.182 515.86,-319.876 549.635,-311.431"/>
<polygon fill="black" stroke="black" points="550.55,-314.81 559.403,-308.989 548.852,-308.019 550.55,-314.81"/>
</g>
<!-- trail braking -->
<g id="node21" class="node"><title>trail braking</title>
<ellipse fill="none" stroke="black" cx="612.355" cy="-404" rx="53.8905" ry="18"/>
<text text-anchor="middle" x="612.355" y="-400.3" font-family="Times,serif" font-size="14.00">trail braking</text>
</g>
<!-- countersteering&#45;&gt;trail braking -->
<g id="edge23" class="edge"><title>countersteering&#45;&gt;trail braking</title>
<path fill="none" stroke="black" d="M443.305,-361.984C477.465,-370.525 523.381,-382.005 558.585,-390.807"/>
<polygon fill="black" stroke="black" points="558.125,-394.299 568.676,-393.329 559.823,-387.508 558.125,-394.299"/>
</g>
<!-- swerve -->
<g id="node22" class="node"><title>swerve</title>
<ellipse fill="none" stroke="black" cx="612.355" cy="-350" rx="35.9954" ry="18"/>
<text text-anchor="middle" x="612.355" y="-346.3" font-family="Times,serif" font-size="14.00">swerve</text>
</g>
<!-- countersteering&#45;&gt;swerve -->
<g id="edge24" class="edge"><title>countersteering&#45;&gt;swerve</title>
<path fill="none" stroke="black" d="M459.589,-350C493.998,-350 535.545,-350 566.463,-350"/>
<polygon fill="black" stroke="black" points="566.515,-353.5 576.515,-350 566.515,-346.5 566.515,-353.5"/>
</g>
<!-- looking ahead&#45;&gt;u&#45;turn -->
<g id="edge22" class="edge"><title>looking ahead&#45;&gt;u&#45;turn</title>
<path fill="none" stroke="black" d="M238.653,-9.31154C298.406,-1.21812 398.724,6.65723 481.464,-15 520.191,-25.1368 559.562,-49.6944 584.647,-67.5336"/>
<polygon fill="black" stroke="black" points="582.752,-70.4829 592.9,-73.5286 586.866,-64.8195 582.752,-70.4829"/>
</g>
<!-- inside body position -->
<g id="node9" class="node"><title>inside body position</title>
<ellipse fill="none" stroke="black" cx="394.371" cy="-242" rx="82.5854" ry="18"/>
<text text-anchor="middle" x="394.371" y="-238.3" font-family="Times,serif" font-size="14.00">inside body position</text>
</g>
<!-- neutral body position&#45;&gt;inside body position -->
<g id="edge8" class="edge"><title>neutral body position&#45;&gt;inside body position</title>
<path fill="none" stroke="black" d="M262.348,-228.067C277.768,-229.707 294.07,-231.44 309.741,-233.107"/>
<polygon fill="black" stroke="black" points="309.619,-236.613 319.933,-234.191 310.36,-229.653 309.619,-236.613"/>
</g>
<!-- aft body position -->
<g id="node10" class="node"><title>aft body position</title>
<ellipse fill="none" stroke="black" cx="394.371" cy="-188" rx="70.6878" ry="18"/>
<text text-anchor="middle" x="394.371" y="-184.3" font-family="Times,serif" font-size="14.00">aft body position</text>
</g>
<!-- neutral body position&#45;&gt;aft body position -->
<g id="edge9" class="edge"><title>neutral body position&#45;&gt;aft body position</title>
<path fill="none" stroke="black" d="M255.089,-209.389C277.019,-205.997 301.314,-202.239 323.344,-198.831"/>
<polygon fill="black" stroke="black" points="323.943,-202.281 333.29,-197.293 322.873,-195.363 323.943,-202.281"/>
</g>
<!-- outside body position -->
<g id="node12" class="node"><title>outside body position</title>
<ellipse fill="none" stroke="black" cx="394.371" cy="-134" rx="87.1846" ry="18"/>
<text text-anchor="middle" x="394.371" y="-130.3" font-family="Times,serif" font-size="14.00">outside body position</text>
</g>
<!-- neutral body position&#45;&gt;outside body position -->
<g id="edge11" class="edge"><title>neutral body position&#45;&gt;outside body position</title>
<path fill="none" stroke="black" d="M217.69,-203.145C241.741,-190.552 276.058,-173.439 307.279,-161 315.42,-157.757 324.115,-154.641 332.732,-151.753"/>
<polygon fill="black" stroke="black" points="333.977,-155.028 342.395,-148.594 331.802,-148.375 333.977,-155.028"/>
</g>
<!-- inside body position&#45;&gt;simple&#45;radius turn -->
<g id="edge16" class="edge"><title>inside body position&#45;&gt;simple&#45;radius turn</title>
<path fill="none" stroke="black" d="M449.316,-255.487C479.757,-263.098 517.918,-272.639 549.559,-280.55"/>
<polygon fill="black" stroke="black" points="549.035,-284.026 559.585,-283.057 550.733,-277.235 549.035,-284.026"/>
</g>
<!-- emergency stop -->
<g id="node11" class="node"><title>emergency stop</title>
<ellipse fill="none" stroke="black" cx="612.355" cy="-188" rx="66.8882" ry="18"/>
<text text-anchor="middle" x="612.355" y="-184.3" font-family="Times,serif" font-size="14.00">emergency stop</text>
</g>
<!-- aft body position&#45;&gt;emergency stop -->
<g id="edge10" class="edge"><title>aft body position&#45;&gt;emergency stop</title>
<path fill="none" stroke="black" d="M465.495,-188C487.713,-188 512.379,-188 535.011,-188"/>
<polygon fill="black" stroke="black" points="535.251,-191.5 545.251,-188 535.251,-184.5 535.251,-191.5"/>
</g>
<!-- stoppie -->
<g id="node29" class="node"><title>stoppie</title>
<ellipse fill="none" stroke="black" cx="834.239" cy="-188" rx="36.2938" ry="18"/>
<text text-anchor="middle" x="834.239" y="-184.3" font-family="Times,serif" font-size="14.00">stoppie</text>
</g>
<!-- emergency stop&#45;&gt;stoppie -->
<g id="edge36" class="edge"><title>emergency stop&#45;&gt;stoppie</title>
<path fill="none" stroke="black" d="M679.328,-188C714.219,-188 756.184,-188 787.476,-188"/>
<polygon fill="black" stroke="black" points="787.653,-191.5 797.653,-188 787.653,-184.5 787.653,-191.5"/>
</g>
<!-- outside body position&#45;&gt;u&#45;turn -->
<g id="edge12" class="edge"><title>outside body position&#45;&gt;u&#45;turn</title>
<path fill="none" stroke="black" d="M455.822,-121.125C492.871,-113.235 539.246,-103.358 571.676,-96.4508"/>
<polygon fill="black" stroke="black" points="572.634,-99.8253 581.686,-94.3189 571.176,-92.9788 572.634,-99.8253"/>
</g>
<!-- tight circle -->
<g id="node25" class="node"><title>tight circle</title>
<ellipse fill="none" stroke="black" cx="834.239" cy="-88" rx="48.9926" ry="18"/>
<text text-anchor="middle" x="834.239" y="-84.3" font-family="Times,serif" font-size="14.00">tight circle</text>
</g>
<!-- u&#45;turn&#45;&gt;tight circle -->
<g id="edge28" class="edge"><title>u&#45;turn&#45;&gt;tight circle</title>
<path fill="none" stroke="black" d="M644.859,-88C678.758,-88 733.415,-88 775.146,-88"/>
<polygon fill="black" stroke="black" points="775.186,-91.5001 785.186,-88 775.186,-84.5001 775.186,-91.5001"/>
</g>
<!-- compound&#45;radius turn -->
<g id="node15" class="node"><title>compound&#45;radius turn</title>
<ellipse fill="none" stroke="black" cx="834.239" cy="-350" rx="89.0842" ry="18"/>
<text text-anchor="middle" x="834.239" y="-346.3" font-family="Times,serif" font-size="14.00">compound&#45;radius turn</text>
</g>
<!-- simple&#45;radius turn&#45;&gt;compound&#45;radius turn -->
<g id="edge14" class="edge"><title>simple&#45;radius turn&#45;&gt;compound&#45;radius turn</title>
<path fill="none" stroke="black" d="M665.465,-308.797C695.849,-316.259 734.471,-325.744 766.998,-333.732"/>
<polygon fill="black" stroke="black" points="766.335,-337.173 776.881,-336.159 768.004,-330.375 766.335,-337.173"/>
</g>
<!-- off&#45;camber turn -->
<g id="node16" class="node"><title>off&#45;camber turn</title>
<ellipse fill="none" stroke="black" cx="834.239" cy="-296" rx="66.8882" ry="18"/>
<text text-anchor="middle" x="834.239" y="-292.3" font-family="Times,serif" font-size="14.00">off&#45;camber turn</text>
</g>
<!-- simple&#45;radius turn&#45;&gt;off&#45;camber turn -->
<g id="edge15" class="edge"><title>simple&#45;radius turn&#45;&gt;off&#45;camber turn</title>
<path fill="none" stroke="black" d="M687.798,-296C710.055,-296 734.486,-296 756.864,-296"/>
<polygon fill="black" stroke="black" points="756.987,-299.5 766.987,-296 756.987,-292.5 756.987,-299.5"/>
</g>
<!-- chicane -->
<g id="node17" class="node"><title>chicane</title>
<ellipse fill="none" stroke="black" cx="834.239" cy="-242" rx="37.8943" ry="18"/>
<text text-anchor="middle" x="834.239" y="-238.3" font-family="Times,serif" font-size="14.00">chicane</text>
</g>
<!-- simple&#45;radius turn&#45;&gt;chicane -->
<g id="edge17" class="edge"><title>simple&#45;radius turn&#45;&gt;chicane</title>
<path fill="none" stroke="black" d="M665.465,-283.203C703.493,-273.864 754.426,-261.355 790.162,-252.579"/>
<polygon fill="black" stroke="black" points="791.397,-255.88 800.274,-250.096 789.727,-249.082 791.397,-255.88"/>
</g>
<!-- clutchless upshift -->
<g id="node30" class="node"><title>clutchless upshift</title>
<ellipse fill="none" stroke="black" cx="612.355" cy="-566" rx="72.2875" ry="18"/>
<text text-anchor="middle" x="612.355" y="-562.3" font-family="Times,serif" font-size="14.00">clutchless upshift</text>
</g>
<!-- clutch upshift&#45;&gt;clutchless upshift -->
<g id="edge37" class="edge"><title>clutch upshift&#45;&gt;clutchless upshift</title>
<path fill="none" stroke="black" d="M453.535,-566C476.926,-566 504.31,-566 529.641,-566"/>
<polygon fill="black" stroke="black" points="529.979,-569.5 539.979,-566 529.979,-562.5 529.979,-569.5"/>
</g>
<!-- clutchless downshift -->
<g id="node31" class="node"><title>clutchless downshift</title>
<ellipse fill="none" stroke="black" cx="612.355" cy="-674" rx="83.3857" ry="18"/>
<text text-anchor="middle" x="612.355" y="-670.3" font-family="Times,serif" font-size="14.00">clutchless downshift</text>
</g>
<!-- clutch downshift&#45;&gt;clutchless downshift -->
<g id="edge38" class="edge"><title>clutch downshift&#45;&gt;clutchless downshift</title>
<path fill="none" stroke="black" d="M444.922,-632.389C475.284,-639.98 514.464,-649.775 547.182,-657.955"/>
<polygon fill="black" stroke="black" points="546.561,-661.408 557.112,-660.438 548.259,-654.617 546.561,-661.408"/>
</g>
<!-- rev matching downshift -->
<g id="node32" class="node"><title>rev matching downshift</title>
<ellipse fill="none" stroke="black" cx="612.355" cy="-620" rx="94.7833" ry="18"/>
<text text-anchor="middle" x="612.355" y="-616.3" font-family="Times,serif" font-size="14.00">rev matching downshift</text>
</g>
<!-- clutch downshift&#45;&gt;rev matching downshift -->
<g id="edge39" class="edge"><title>clutch downshift&#45;&gt;rev matching downshift</title>
<path fill="none" stroke="black" d="M464.007,-620C477.756,-620 492.492,-620 507.135,-620"/>
<polygon fill="black" stroke="black" points="507.244,-623.5 517.244,-620 507.244,-616.5 507.244,-623.5"/>
</g>
<!-- power wheelie -->
<g id="node24" class="node"><title>power wheelie</title>
<ellipse fill="none" stroke="black" cx="612.355" cy="-512" rx="62.2891" ry="18"/>
<text text-anchor="middle" x="612.355" y="-508.3" font-family="Times,serif" font-size="14.00">power wheelie</text>
</g>
<!-- clutch wheelie&#45;&gt;power wheelie -->
<g id="edge27" class="edge"><title>clutch wheelie&#45;&gt;power wheelie</title>
<path fill="none" stroke="black" d="M456.398,-512C482.281,-512 512.635,-512 539.585,-512"/>
<polygon fill="black" stroke="black" points="539.731,-515.5 549.731,-512 539.731,-508.5 539.731,-515.5"/>
</g>
<!-- engine braking&#45;&gt;trail braking -->
<g id="edge26" class="edge"><title>engine braking&#45;&gt;trail braking</title>
<path fill="none" stroke="black" d="M458.133,-404C486.42,-404 519.759,-404 548.104,-404"/>
<polygon fill="black" stroke="black" points="548.302,-407.5 558.302,-404 548.302,-400.5 548.302,-407.5"/>
</g>
<!-- figure eight -->
<g id="node26" class="node"><title>figure eight</title>
<ellipse fill="none" stroke="black" cx="1013.23" cy="-88" rx="51.9908" ry="18"/>
<text text-anchor="middle" x="1013.23" y="-84.3" font-family="Times,serif" font-size="14.00">figure eight</text>
</g>
<!-- tight circle&#45;&gt;figure eight -->
<g id="edge29" class="edge"><title>tight circle&#45;&gt;figure eight</title>
<path fill="none" stroke="black" d="M883.134,-88C904.086,-88 928.913,-88 951.171,-88"/>
<polygon fill="black" stroke="black" points="951.194,-91.5001 961.194,-88 951.194,-84.5001 951.194,-91.5001"/>
</g>
<!-- linked braking&#45;&gt;emergency stop -->
<g id="edge35" class="edge"><title>linked braking&#45;&gt;emergency stop</title>
<path fill="none" stroke="black" d="M440.864,-284.09C454.21,-279.971 468.654,-274.887 481.464,-269 516.89,-252.721 554.37,-228.499 579.915,-210.784"/>
<polygon fill="black" stroke="black" points="582.252,-213.42 588.43,-204.813 578.233,-207.689 582.252,-213.42"/>
</g>
<!-- linked braking&#45;&gt;trail braking -->
<g id="edge34" class="edge"><title>linked braking&#45;&gt;trail braking</title>
<path fill="none" stroke="black" d="M446.38,-305.785C458.66,-309.755 471.187,-315.295 481.464,-323 504.542,-340.303 494.18,-359.974 517.464,-377 527.835,-384.584 540.289,-390.044 552.685,-393.972"/>
<polygon fill="black" stroke="black" points="551.997,-397.416 562.574,-396.806 553.925,-390.687 551.997,-397.416"/>
</g>
<!-- blipping while braking -->
<g id="node33" class="node"><title>blipping while braking</title>
<ellipse fill="none" stroke="black" cx="834.239" cy="-620" rx="90.9839" ry="18"/>
<text text-anchor="middle" x="834.239" y="-616.3" font-family="Times,serif" font-size="14.00">blipping while braking</text>
</g>
<!-- rev matching downshift&#45;&gt;blipping while braking -->
<g id="edge40" class="edge"><title>rev matching downshift&#45;&gt;blipping while braking</title>
<path fill="none" stroke="black" d="M707.563,-620C715.932,-620 724.426,-620 732.845,-620"/>
<polygon fill="black" stroke="black" points="733.063,-623.5 743.063,-620 733.063,-616.5 733.063,-623.5"/>
</g>
</g>
</svg>
